<svg width="0" height="0" class="hidden">
  <symbol xmlns="http://www.w3.org/2000/svg" viewBox="0 0 32 32" id="accessibility">
    <title>accessibility</title>
    <path d="M13 3a3 3 0 116 0 3 3 0 01-6 0z"></path>
    <path d="M20 10l10.3-4.443-.743-1.857L17 8h-2L2.443 3.7 1.7 5.557 12 10v8L7.898 31.268l1.87.709L15.572 19h.857l5.804 12.977 1.87-.709L20.001 18z"></path>
  </symbol>
  <symbol xmlns="http://www.w3.org/2000/svg" viewBox="0 0 24 24" id="photoshop">
    <title>Adobe Photoshop icon</title>
    <path d="M9.85 8.42c-.37-.15-.77-.21-1.18-.2-.26 0-.49 0-.68.01-.2-.01-.34 0-.41.01v3.36c.14.01.27.02.39.02h.53c.39 0 .78-.06 1.15-.18.32-.09.6-.28.82-.53.21-.25.31-.59.31-1.03.01-.31-.07-.62-.23-.89a1.45 1.45 0 00-.7-.57zM19.75.3H4.25C1.9.3 0 2.2 0 4.55v14.899c0 2.35 1.9 4.25 4.25 4.25h15.5c2.35 0 4.25-1.9 4.25-4.25V4.55C24 2.2 22.1.3 19.75.3zm-7.391 11.65c-.399.56-.959.98-1.609 1.22-.68.25-1.43.34-2.25.34-.24 0-.4 0-.5-.01s-.24-.01-.43-.01v3.209c.01.07-.04.131-.11.141H5.52c-.08 0-.12-.041-.12-.131V6.42c0-.07.03-.11.1-.11.17 0 .33 0 .56-.01.24-.01.49-.01.76-.02s.56-.01.87-.02c.31-.01.61-.01.91-.01.82 0 1.5.1 2.06.31.5.17.96.45 1.34.82.32.32.57.71.73 1.14.149.42.229.85.229 1.3.001.86-.199 1.57-.6 2.13zm7.091 3.89c-.28.4-.671.709-1.12.891-.49.209-1.09.318-1.811.318-.459 0-.91-.039-1.359-.129-.35-.061-.7-.17-1.02-.32-.07-.039-.121-.109-.111-.189v-1.74c0-.029.011-.07.041-.09.029-.02.06-.01.09.01.39.23.8.391 1.24.49.379.1.779.15 1.18.15.38 0 .65-.051.83-.141.16-.07.27-.24.27-.42 0-.141-.08-.27-.24-.4-.16-.129-.489-.279-.979-.471-.51-.18-.979-.42-1.42-.719a2.625 2.625 0 01-.761-.85 2.158 2.158 0 01-.229-1.021c0-.43.12-.84.341-1.21.25-.4.619-.72 1.049-.92.469-.239 1.059-.349 1.769-.349.41 0 .83.03 1.24.09.3.04.59.12.86.23.039.01.08.05.1.09.01.04.02.08.02.12v1.63c0 .04-.02.08-.05.1-.09.02-.14.02-.18 0-.3-.16-.62-.27-.96-.34-.37-.08-.74-.13-1.12-.13-.2-.01-.41.02-.601.07-.129.03-.24.1-.31.2-.05.08-.08.18-.08.27s.04.18.101.26c.09.11.209.2.34.27.229.12.47.23.709.33.541.18 1.061.43 1.541.73.33.209.6.49.789.83.16.318.24.67.23 1.029.011.471-.129.94-.389 1.331z"></path>
  </symbol>
  <symbol xmlns="http://www.w3.org/2000/svg" viewBox="0 0 24 24" id="xd">
    <title>Adobe XD icon</title>
    <path d="M18.835.3H5.165A5.165 5.165 0 000 5.465v13.07A5.165 5.165 0 005.165 23.7h13.67A5.165 5.165 0 0024 18.535V5.465A5.165 5.165 0 0018.835.3zm-6.106 16.491h-2.287c-.16 0-.274-.006-.338-.113-.215-.419-.43-.835-.644-1.248a45.137 45.137 0 00-.684-1.264 66.961 66.961 0 01-.717-1.305h-.016a52.7 52.7 0 01-.668 1.288c-.23.429-.459.856-.684 1.28A54.85 54.85 0 016 16.693c-.044.097-.119.107-.227.107H3.568c-.043 0-.067.017-.072-.026a.166.166 0 01.024-.113l3.107-5.105L3.6 6.438c-.033-.043-.038-.078-.016-.107a.115.115 0 01.097-.04h2.27a.36.36 0 01.145.024.292.292 0 01.096.089c.193.43.408.859.644 1.288.236.429.475.853.716 1.272.241.419.464.843.668 1.272h.016c.213-.44.43-.869.652-1.288.222-.419.447-.84.676-1.264.231-.425.453-.847.668-1.264a.246.246 0 01.064-.106.239.239 0 01.129-.024h2.109a.093.093 0 01.112.067.093.093 0 01-.031.094l.001.004-2.995 4.943 3.204 5.249c.021.037.026.08.016.121-.01.036-.047.012-.112.023zm7.681-.42a8.02 8.02 0 01-1.626.483 8.63 8.63 0 01-1.547.145 5.006 5.006 0 01-2.149-.45 3.421 3.421 0 01-1.506-1.361 4.348 4.348 0 01-.548-2.278 4.202 4.202 0 01.548-2.109 4.018 4.018 0 011.595-1.545 5.139 5.139 0 012.737-.572c.086.005.188.013.306.024V5.536c0-.075.032-.113.097-.113h2.028a.086.086 0 01.097.073.096.096 0 010 .024v9.517c0 .183.008.381.024.596.016.214.03.407.04.579a.163.163 0 01-.096.159zm-2.457-5.812c.09.009.179.025.266.048v4.395a1.634 1.634 0 01-.354.064 4.965 4.965 0 01-.419.016 2.656 2.656 0 01-.83-.129 1.714 1.714 0 01-.676-.402 1.973 1.973 0 01-.451-.708 2.83 2.83 0 01-.169-1.031 2.217 2.217 0 01.33-1.272c.213-.316.504-.571.845-.741.35-.173.736-.262 1.127-.258.111.002.221.007.331.018z"></path>
  </symbol>
  <symbol xmlns="http://www.w3.org/2000/svg" viewBox="0 0 32 32" id="angular">
    <title>angular</title>
    <path d="M13.24 16.86h5.512l-2.757-6.54z"></path>
    <path d="M15.995.012L.915 5.317l2.3 19.68 12.78 6.991 12.784-6.984L31.078 5.32 15.995.013zm9.41 24.396H21.89l-1.893-4.668h-8.004L10.1 24.408H6.583l9.413-20.864 9.409 20.864z"></path>
  </symbol>
  <symbol xmlns="http://www.w3.org/2000/svg" viewBox="0 0 24 24" id="apache">
    <title>Apache icon</title>
    <path d="M17.805 2.197v.066h.156v.44h.072v-.44h.156v-.066zm.9 0l-.175.353-.172-.353h-.087v.506h.067V2.3l.172.35h.045l.172-.35v.404h.066v-.506zm-4.257 1c-.204.31-.424.66-.66 1.06l-.04.062a44.457 44.457 0 00-1.265 2.29c-.187.36-.38.742-.577 1.146l2.267-.25c.66-.302.955-.578 1.242-.976a15.5 15.5 0 00.23-.342c.23-.363.46-.763.663-1.16.197-.386.37-.767.505-1.11.083-.22.15-.422.198-.6.042-.158.074-.307.1-.45-.884.15-1.965.295-2.668.33zM11.894 7.78l-.077.16c-.078.16-.157.32-.236.488-.086.18-.172.364-.26.552l-.132.287a75.265 75.265 0 00-1.427 3.3c-.163.397-.327.807-.493 1.23-.15.38-.297.765-.45 1.164l-.02.06c-.15.396-.3.802-.453 1.22l-.01.027.72-.08a.213.213 0 01-.042-.006c.863-.106 2.01-.75 2.75-1.547.342-.367.652-.8.94-1.306.213-.377.413-.795.604-1.258.168-.405.328-.843.48-1.318-.196.105-.423.18-.673.235a2.184 2.184 0 01-.273.046c.806-.31 1.314-.905 1.683-1.64a2.816 2.816 0 01-.968.428c-.06.012-.116.022-.174.03l-.043.006h.002c.278-.118.514-.248.718-.403a2.571 2.571 0 00.637-.698l.063-.104.077-.154a8.107 8.107 0 00.367-.85l.03-.088a3.04 3.04 0 00.123-.463.733.733 0 01-.094.065c-.243.145-.66.277-.996.34l.663-.074-.664.073h-.017l-.1.017c.006-.003.01-.006.017-.008l-2.265.25-.013.022zM8.27 16.45c-.117.323-.236.654-.355.992l-.005.015c-.016.046-.032.094-.05.142-.08.227-.15.432-.31.9.264.12.475.435.675.793a1.44 1.44 0 00-.466-.99c1.293.06 2.41-.27 2.99-1.217.05-.084.096-.173.14-.268-.26.333-.59.474-1.2.44 0 0-.004 0-.005.002l.004-.002c.9-.404 1.354-.79 1.754-1.433.094-.153.186-.32.28-.503-.788.81-1.702 1.04-2.664.865l-.72.078a6.43 6.43 0 00-.067.183zM15.42.112c-.376.222-1 .85-1.748 1.763l.686 1.294c.48-.687.97-1.307 1.462-1.836l.058-.062c-.02.02-.04.04-.057.062-.16.176-.644.74-1.375 1.863.703-.035 1.784-.18 2.666-.33.262-1.47-.258-2.142-.258-2.142s-.66-1.07-1.436-.61zm-3.084 6.402a40.253 40.253 0 011.306-2.26l.04-.064c.224-.352.45-.693.677-1.02l-.685-1.293-.157.192c-.197.245-.403.51-.613.79a39.853 39.853 0 00-2.016 2.97l-.022.038.893 1.763c.19-.378.38-.752.575-1.118zm-3.73 8.32c.158-.406.319-.81.483-1.225.156-.394.32-.79.484-1.19a91.133 91.133 0 011.6-3.604l.205-.424c.12-.243.237-.485.36-.724a.125.125 0 01.02-.04l-.895-1.763-.044.07a44.1 44.1 0 00-.617 1.042 38.056 38.056 0 00-1.092 2.04l-.094.193a24.573 24.573 0 00-1.258 3.087 18.492 18.492 0 00-.52 1.997l.896 1.77c.117-.317.24-.638.364-.963zm-1.376-.476a13.38 13.38 0 00-.234 1.692c0 .02-.004.04-.005.06-.28-.45-1.03-.888-1.026-.884.537.778.944 1.55 1.005 2.31-.29.058-.684-.027-1.14-.195.475.436.83.556.97.588-.434.03-.89.328-1.346.67.668-.27 1.21-.38 1.596-.29-.61 1.74-1.23 3.655-1.843 5.69a.538.538 0 00.364-.354c.11-.368.84-2.786 1.978-5.965l.097-.27.028-.078c.12-.332.246-.672.374-1.02l.09-.237v-.004L7.24 14.3c-.003.02-.01.04-.012.06z"></path>
  </symbol>
  <symbol xmlns="http://www.w3.org/2000/svg" viewBox="0 0 24 24" id="azure">
    <title>Azure DevOps icon</title>
    <path d="M0 8.877L2.247 5.91l8.405-3.416V.022l7.37 5.393L2.966 8.338v8.225L0 15.707zm24-4.45v14.651l-5.753 4.9-9.303-3.057v3.056l-5.978-7.416 15.057 1.798V5.415z"></path>
  </symbol>
  <symbol xmlns="http://www.w3.org/2000/svg" viewBox="0 0 32 32" id="checkbox-checked">
    <title>checkbox-checked</title>
    <path d="M28 0H4C1.8 0 0 1.8 0 4v24c0 2.2 1.8 4 4 4h24c2.2 0 4-1.8 4-4V4c0-2.2-1.8-4-4-4zM14 24.828l-7.414-7.414 2.828-2.828L14 19.172l9.586-9.586 2.828 2.828L14 24.828z"></path>
  </symbol>
  <symbol xmlns="http://www.w3.org/2000/svg" viewBox="0 0 32 32" id="css3">
    <title>css3</title>
    <path d="M2 0h28l-2.547 28.751L15.969 32l-11.42-3.251L2 0zm22.787 5.884L7.214 5.88l.284 3.496 13.5.003-.34 3.621h-8.853l.32 3.431h8.243l-.488 4.697L16 22.2l-3.941-1.08-.251-2.813h-3.48l.387 5.14 7.287 2.271 7.164-2.04 1.623-17.792z"></path>
  </symbol>
  <symbol xmlns="http://www.w3.org/2000/svg" viewBox="0 0 24 24" id="docker">
    <title>Docker icon</title>
    <path d="M13.983 11.078h2.119a.186.186 0 00.186-.185V9.006a.186.186 0 00-.186-.186h-2.119a.185.185 0 00-.185.185v1.888c0 .102.083.185.185.185m-2.954-5.43h2.118a.186.186 0 00.186-.186V3.574a.186.186 0 00-.186-.185h-2.118a.185.185 0 00-.185.185v1.888c0 .102.082.185.185.185m0 2.716h2.118a.187.187 0 00.186-.186V6.29a.186.186 0 00-.186-.185h-2.118a.185.185 0 00-.185.185v1.887c0 .102.082.185.185.186m-2.93 0h2.12a.186.186 0 00.184-.186V6.29a.185.185 0 00-.185-.185H8.1a.185.185 0 00-.185.185v1.887c0 .102.083.185.185.186m-2.964 0h2.119a.186.186 0 00.185-.186V6.29a.185.185 0 00-.185-.185H5.136a.186.186 0 00-.186.185v1.887c0 .102.084.185.186.186m5.893 2.715h2.118a.186.186 0 00.186-.185V9.006a.186.186 0 00-.186-.186h-2.118a.185.185 0 00-.185.185v1.888c0 .102.082.185.185.185m-2.93 0h2.12a.185.185 0 00.184-.185V9.006a.185.185 0 00-.184-.186h-2.12a.185.185 0 00-.184.185v1.888c0 .102.083.185.185.185m-2.964 0h2.119a.185.185 0 00.185-.185V9.006a.185.185 0 00-.184-.186h-2.12a.186.186 0 00-.186.186v1.887c0 .102.084.185.186.185m-2.92 0h2.12a.185.185 0 00.184-.185V9.006a.185.185 0 00-.184-.186h-2.12a.185.185 0 00-.184.185v1.888c0 .102.082.185.185.185M23.763 9.89c-.065-.051-.672-.51-1.954-.51-.338.001-.676.03-1.01.087-.248-1.7-1.653-2.53-1.716-2.566l-.344-.199-.226.327c-.284.438-.49.922-.612 1.43-.23.97-.09 1.882.403 2.661-.595.332-1.55.413-1.744.42H.751a.751.751 0 00-.75.748 11.376 11.376 0 00.692 4.062c.545 1.428 1.355 2.48 2.41 3.124 1.18.723 3.1 1.137 5.275 1.137a15.74 15.74 0 002.93-.266 12.248 12.248 0 003.823-1.389 10.51 10.51 0 002.61-2.136c1.252-1.418 1.998-2.997 2.553-4.4h.221c1.372 0 2.215-.549 2.68-1.009.309-.293.55-.65.707-1.046l.098-.288z"></path>
  </symbol>
  <symbol xmlns="http://www.w3.org/2000/svg" viewBox="0 0 32 32" id="envelop">
    <title>envelop</title>
    <path d="M29 4H3C1.35 4 0 5.35 0 7v20c0 1.65 1.35 3 3 3h26c1.65 0 3-1.35 3-3V7c0-1.65-1.35-3-3-3zM12.461 17.199L4 23.789V8.113l8.461 9.086zM5.512 8h20.976L16 15.875 5.512 8zm7.278 9.553L16 21l3.21-3.447L25.79 26H6.211l6.58-8.447zm6.749-.354L28 8.113v15.676l-8.461-6.59z"></path>
  </symbol>
  <symbol xmlns="http://www.w3.org/2000/svg" viewBox="0 0 24 24" id="flask">
    <title>Flask icon</title>
    <path d="M7.172 20.36c-.914-.72-1.89-1.41-2.556-2.38-1.402-1.712-2.482-3.694-3.22-5.777-.446-1.355-.6-2.808-1.174-4.11-.602-.944.103-1.978 1.138-2.28.46-.087 1.272-.522.293-.211-.878.644-.963-.585-.063-.662.615-.082.84-.585.63-1.037-.66-.43 1.6-.903.463-1.544C1.5 1.08 4.34.835 3.64 2.285 3.473 3.4 5.624 2.08 5.125 3.368c.507.619 1.9.14 1.865 1.009.74.05.993.672 1.687.72.72.325 2.022.58 2.266 1.39-.713.566-2.364-1.165-2.443.398.215 2.31.16 4.689 1.004 6.888.4 1.332 1.37 2.38 2.244 3.418.837 1.016 1.971 1.73 3.127 2.333 1.014.478 2.107.795 3.213.994.448-.343 1.24-1.617 1.938-1.08.033.604-1.388 1.263-.067 1.196.776-.234 1.314.6 1.953-.152.588.697 2.446-.446 2.027.98-.566.364-1.392.144-1.959.646-.935-.467-1.68.418-2.715.306a19.86 19.86 0 01-3.484.29c-1.912-.15-3.865-.214-5.684-.88-1.024-.297-2.023-.881-2.924-1.464zm1.615.7c1 .432 1.978.888 3.074 1.026 1.74.24 3.537.614 5.283.274-.79-.357-1.608.14-2.395-.255-.944.203-1.957-.052-2.917-.177-1.092-.486-2.27-.82-3.291-1.452-1.277-.466.66.598 1.005.685.798.453-.877-.233-1.114-.421-.668-.375-.754-.297-.066.084.139.08.276.166.42.235zm-1.904-1.346c.97.359-.004-.682-.45-.622-.196-.341-.751-.557-.36-.74-.704.244-.737-.93-1.07-.763-.744-.235-.29-1.07-1.176-1.58-.081-.54-.882-1.008-1.138-1.822-.113-.416-.905-1.613-.418-.5.414 1.072 1.143 1.99 1.75 2.907.47.873 1.027 1.786 1.885 2.33.29.278.568.703.977.79zM4.09 16.647c.033-.146.177.317 0 0zm3.954 3.497c.215-.096-.31-.12 0 0zm.526.192c-.054-.265-.24.148 0 0zm.66.275c.312-.3-.484-.188 0 0zm1.127.63c.191-.282-.61-.107 0 0zM8.19 19.728c.487-.315-.63-.004 0 0zm.494.246c-.014-.166-.176.075 0 0zm2.47 1.542c.397.25 2.32.55 1.115.103-.2.042-2.23-.574-1.116-.103zm-3.921-3.054c-.04-.167-.616-.185 0 0zm1.15.67c.3-.21-.621-.16 0 0zm.966.593c.43-.162-.696-.163 0 0zm-2.584-1.773c.466.358 1.88.046.714-.213-.53-.283-1.727-.476-.912.17zm3.24 1.978c.193-.33-.815-.19 0 0zm-.984-.783c1.14.323-.958-.72-.281-.118l.15.068.13.05zm1.973 1.14c1.08.01-.975-.147 0 0zm-4.644-2.96c-.042-.2-.266.018 0 0zm6.47 3.985c.028-.363-.353.27 0 0zm-4.63-2.856c-.064-.191-.336-.008 0 0zm-1.738-1.254c.62-.037-.848-.273 0 0zm-2.06-1.332c-.077-.297-.674-.534 0 0zm5.407 3.435c-.114-.13-.054.028 0 0zm3.366 2.065c-.01-.197-.183.075 0 0zm-3.664-2.373c.06-.255-.528-.077 0 0zm-2.506-1.592c.46-.05-.74-.311 0 0zm4.241 2.637c.718-.285-.7-.14 0 0zM9.03 18.545c.827.106-.985-.563-.181-.06zm2.876 1.768c.773-.462.518 1.082 1.311.13.782-.57-.675.707.29.103.696-.467 1.726.22 2.376.445.468-.023.923.405 1.403.145.923-.25-1.806-.37-1.09-.81-.845.245-1.47-.294-1.885-.835-.948-.22-2.044-.703-2.517-1.542-.192-.315.28.044-.166-.47-.57-.508-.856-1.085-1.24-1.702-.457-.244-.51-.963-.557-.024.004-.593-.553-.992-.688-.826-.002-.571.595-.285.176-.707-.09-.592-.386-1.21-.475-1.877-.138-.322-.02-1.011-.473-.282-.165.77-.055-.947.202-.38.337-.58-.12-.51-.14-.43.22-.488.14-1.18-.057-.916.117-.517.185-1.902-.175-1.656.218-.54.414-2.473-.534-1.736-.384.005-1.048.14-1.363.296.986.543-.1.196-.5.11-.052.502-.45.285-.946.29.793.098-.386.81-.841.534-.59.282.51.987.012 1.205.06.328-.905-.12-.83.64-.573-.241-.078.9.209.514.975.264.686.866.71 1.437-.158.333-.784-.783-.14-.731-.507-.827-.561-.3-.984.085-.1.028 1.079.547.34.803.65.1.668.67.8 1.03.39.407.31-.45.779.04-.296-.436-1.567-1.228-.544-.974-.005-.44-.185-.793.129-.784.31-.562-.325 1.387.375.672.193-.085.24-.563.59.045.505.498.182.858-.531.403.127.433.954.587.799 1.265.165.595.395.376.596.342.158.578.247.153.255-.123.72.155.552.58.778.88.497.224-.712-1.522.142-.526.898.81.337 1.15-.47 1.02.51-.041.675.69 1.313.664.582.277.975 1.34-.027.897-.348-.313-1.58-.7-.573-.104.929.43 1.665.688 2.561 1.227.64.458.918.982 1.16 1.086-.538.257-1.623-.206-.817-.348-.503-.091-1.068-.345-.587.28.41.343 1.45.306 1.637.345-.159.348-.43.376.006.403-.486.26.156.3.201.448zm-.994-2.808c-.296-.31-.373-.89-.053-.385.164.066.525.947.053.385zm3.238 2.057c.185-.011.006.14 0 0zm-3.706-2.816c-.01-.468.107.36 0 0zm-.322-.433c-.372-.72.47.204 0 0zm-3.9-2.692c.219-.06.108.374 0 0zm3.104 1.682c.134-.504.158.424 0 0zm-2.192-1.525c-.155-.278.323.26 0 0zm1.882.604c-.352-.79.25-.432.078.13zM5.77 12.217c-.158-.26-.418-1.02-.334-1.252.076.378.804 1.627.357.518-.494-.93.59.302.702.534.05.23-.305-.063-.064.478-.44-.617-.26.34-.661-.278zm-1.003-.691c.04-.603.23.413 0 0zm.45.155c.216-.455.366.634 0 0zm-1.084-.84c-.374-.37-.644-.713.017-.23.255.01-.566-.778.06-.25.66.12.327 1.082-.077.48zm.57-.015c.217-.215.115.212 0 0zm.35.113c-.328-.617.4.258 0 0zm-.697-.667c-1.086-.966 1.365.506.177.18zm3.11 1.808c-.47-.282-.123-1.984.037-.82.457-.148-.025.6.315.594-.053.473-.206.643-.35.226zm1.15.68c.048-.513.099.35 0 0zm-.2-.198c.054-.22.007.258 0 0zM4.57 9.955c-.697-.963 2.027.973.447.244-.165-.043-.364-.06-.447-.244zm2.216 1.175c-.066-.81.147.134 0 0zm1.682 1.079c.13-.462.01.305 0 0zM4.676 9.587c.415-.088 1.718.729.52.234-.132-.148-.416-.08-.52-.234zm3.56 1.775c.044-.83.248-.495.002.118zM4.985 9.299c.169-.248-.45-1.12.089-.313.232.185.672.31.283.387.61.539-.15.146-.372-.074zm3.075 1.804c.117-.944.103.553 0 0zM4.632 8.427c.129-.055.068.172 0 0zm.802.478c.206-.434.38.483 0 0zm2.263 1.259c-.002-.167.043.242 0 0zm-.131-.29c-.314-.776.292.41 0 0zm-.193-.51c-.053-.32.18.404 0 0zm.314-.51c-.216-.38.272-1.673.326-.87-.227.625-.065.975.093.136.293-.66-.063 1.303-.42.735zm.322-1.923c.094-.115.02.139 0 0zM7.47 17.544c-.128-.111.016.07 0 0zm1.11.56c.615.16.612-.095.055-.17-.3-.28-1.246-.575-.4-.035.057.142.235.139.344.206zM6.389 16.65c.34.253 1.28.719.484.096.269-.312-.514-.478-.254-.686-.66-.404-.52-.368-.058-.356-.794-.354.114-.328.07-.51-.305-.06-1.52-.54-.804.04-.726-.37-.173.138-.392.084-.743-.202.66.565-.118.375.425.337 1.146.864.18.357-.128.183.69.46.892.6zm1.16.667c1.41.454-.691-.556 0 0zm5.94 3.598c.02-.28-.193.24 0 0zm.611.257c.325-.315.013.503.54-.077.005-.415-.017-.66-.606-.156-.162.09-.234.473.066.233zm-9.692-6.087c-.1-.393-.7-.39 0 0zm.652.428c-.242-.402-.864-.364 0 0zm3.71 2.237c.362.32 1.662.236.44.04-.182-.27-1.151-.204-.44-.04zm5.097 3.149c.558-.468-.54.208 0 0zm1.16.796c.003-.15-.24.066 0 0zm.001-.21c.617-.654-.598.039 0 0zM2.805 13.743c-.526-.75-.327-1.088-.835-1.7-.096-.47-.87-1.533-.4-.406.43.659.558 1.679 1.235 2.106zm12.03 7.534c1.135-.734-.466-.32 0 0zm.866.34c.57-.488-.36-.102 0 0zM4.215 14.255c.163-.242-.42-.031 0 0zm11.305 7.129c.551-.355-.126-.3-.1.032zm-7.47-4.71c-.02-.24-.291.02 0 0zm.46.267c-.145-.297-.224.047 0 0zm7.894 4.684c.705-.51-.428-.098-.148.096zm-.27-.13c.574-.482-.607.213 0 0zm1.38.918c.386-.258-.469-.083 0 0zM4.57 14.08c.517.116 2.066 1.274 1.152.08-.468-.138-.187-1.283-.665-1.08.32.535.264.763-.41.426-.845-.413-.474.204-.31.374-.224.052.299.196.233.2zm-2.356-1.86c.092-.383-.853-2.107-.446-.864.146.26.13.754.446.864zm4.324 2.666c-.266-.223-.013-.032 0 0zm.656.152c0-.405-.725-.164 0 0zm5.681 3.583c-.108-.278-.428-.006 0 0zm.273.199c-.04-.155-.157.03 0 0zm2.252 1.42c.216-.16-.27-.02 0 0zM3.39 12.52c.62-.24-.664-.17 0 0zm8.984 5.662c-.007-.401-.395.1 0 0zm-9.23-6.231c.399-.135-.367-.09 0 0zm1.156.56c-.007-.133-.122.05 0 0zm14.09 8.64c.512-.104 1.678.26 1.866-.136-.62-.015-2.15-.438-2.222.1l.136.023.22.013zM4.667 12.603c.009-.407-.317-.015 0 0zM1.63 10.495c-.138-.775-.525-.118 0 0zm.724.182c.009-.25-.663-.224 0 0zm.414.203c-.12-.097-.094.122 0 0zm2.605 1.67c.122-.112-.29-.083 0 0zm-2.88-2.128c-.07-.585-.84-.088 0 0zm-1.486-.964c-.02-.27-.144.102 0 0zm.22-.167c-.035-.32-.19.04 0 0zm1.22.729c.518-.203-.94-.42-.104-.04zm16.334 10.089c.33-.303-.42-.094 0 0zm1.974 1.023c.132-.392-.334.05 0 0zM2.573 9.38c.055-.38-.41.075 0 0zM.837 8.218c-.093-.535-.08-1.474.812-1.156-1.191.236.824 1.48.57.498.5.024.98-.296.716.19.987-.11 1.67-.964 2.624-.845.742-.098 1.554-.172 2.354-.471.658-.048 1.29-.756.93-1.175-.896-.076-1.835.036-2.827.233-1.098.228-2.096.662-3.205.849-1.08.145.217.4-.092.456-.564.196.672.328-.073.534-.46-.088-.94-.246-.743-.73-1.035.133-1.945.563-1.127 1.616h.06zm2.494-1.27c.243-.894 1.3.735.398.118-.108-.08-.285-.146-.398-.12zm.047-.434c.35-.26.186.146 0 0zm.445.008c.032-.411 1.018.218.163.148zm.608-.245c.222-.26.064.23 0 0zm.156-.104c.37-.444 2.095-.283.832-.043-.338-.255-.598.15-.832.043zm2.25-.347c-.055-1.214 1.119.432 0 0zm.64-.004c.233-.612.906-.245.108-.123.017.065-.024.316-.108.123zM2.322 9.067c.697-.427-.741-.37 0 0zm.515.144c.245-.26-.531-.106 0 0zm-1.52-1.08c.399-.305-.471-.116 0 0zm20.602 12.89c.012-.355-.304.16 0 0zm-2.093-1.43c.06-.408-.27.037 0 0zm2.67 1.568c.557 0 1.688-.173.475-.173-.19.03-1.109.024-.476.173zM3.29 8.959c.45-.03.706-.497-.087-.47-1.23-.127 1.084.42-.158.264-.167.11.236.237.245.207zm.398.202c-.048-.29-.14.154 0 0zm.47-1.257c.197-.243-.27-.065 0 0zm-1.5-2.508c.806-.274 1.907-.581 2.287.135-.387-.466-.156-.924.21-.243.516.689.775-.313.438-.545.383.476.819.7.257.03.61-.734-1.223.097-1.64.088-.2.09-2.071.477-1.551.535zm.472-.903c.46-.347 1.588.206.864-.345-.07-.062-1.586.418-.864.345zm1.674.069c.538.013-.231-.722.409-.39-.105-.343-.746-.407-1.06-.544-.176.314.36.938.65.934zm-1.38-1.52c.186-.252-.326.128 0 0zm.684.164c.866-.115-.22-.373-.174-.01zm-1.277-1c-.61-.796 1.146.134.527-.7-.522-.415-1.023.468-.527.7zm7.824 4.215c.28-.496-1.155-.668-.188-.175.09.03.07.21.188.175z"></path>
  </symbol>
  <symbol xmlns="http://www.w3.org/2000/svg" viewBox="0 0 32 32" id="html5">
    <title>html5</title>
    <path d="M2 0h28l-2.547 28.751L15.969 32 4.55 28.749 1.999 0zm9.375 13l-.309-3.624 13.412.004.307-3.496L7.217 5.88l.931 10.68h12.168l-.435 4.568-3.88 1.072-3.94-1.08-.251-2.813H8.331l.44 5.561L16 25.801l7.172-1.924.992-10.876H11.375z"></path>
  </symbol>
  <symbol xmlns="http://www.w3.org/2000/svg" viewBox="0 0 24 24" id="laravel">
    <title>Laravel icon</title>
    <path d="M23.642 5.43a.364.364 0 01.014.1v5.149c0 .135-.073.26-.189.326l-4.323 2.49v4.934a.378.378 0 01-.188.326L9.93 23.949a.316.316 0 01-.066.027c-.008.002-.016.008-.024.01a.348.348 0 01-.192 0c-.011-.002-.02-.008-.03-.012-.02-.008-.042-.014-.062-.025L.533 18.755a.376.376 0 01-.189-.326V2.974c0-.033.005-.066.014-.098.003-.012.01-.02.014-.032a.369.369 0 01.023-.058c.004-.013.015-.022.023-.033l.033-.045c.012-.01.025-.018.037-.027.014-.012.027-.024.041-.034H.53L5.043.05a.375.375 0 01.375 0L9.93 2.647h.002c.015.01.027.021.04.033l.038.027c.013.014.02.03.033.045.008.011.02.021.025.033.01.02.017.038.024.058.003.011.01.021.013.032.01.031.014.064.014.098v9.652l3.76-2.164V5.527c0-.033.004-.066.013-.098.003-.01.01-.02.013-.032a.487.487 0 01.024-.059c.007-.012.018-.02.025-.033.012-.015.021-.03.033-.043.012-.012.025-.02.037-.028.014-.01.026-.023.041-.032h.001l4.513-2.598a.375.375 0 01.375 0l4.513 2.598c.016.01.027.021.042.031.012.01.025.018.036.028.013.014.022.03.034.044.008.012.019.021.024.033a.3.3 0 01.024.06c.006.01.012.021.015.032zm-.74 5.032V6.179l-1.578.908-2.182 1.256v4.283zm-4.51 7.75v-4.287l-2.147 1.225-6.126 3.498v4.325zM1.093 3.624v14.588l8.273 4.761v-4.325l-4.322-2.445-.002-.003H5.04c-.014-.01-.025-.021-.04-.031-.011-.01-.024-.018-.035-.027l-.001-.002c-.013-.012-.021-.025-.031-.04-.01-.011-.021-.022-.028-.036h-.002c-.008-.014-.013-.031-.02-.047-.006-.016-.014-.027-.018-.043a.49.49 0 01-.008-.057c-.002-.014-.006-.027-.006-.041V5.789l-2.18-1.257zM5.23.81L1.47 2.974l3.76 2.164 3.758-2.164zm1.956 13.505l2.182-1.256V3.624l-1.58.91-2.182 1.255v9.435zm11.581-10.95l-3.76 2.163 3.76 2.163 3.759-2.164zm-.376 4.978L16.21 7.087l-1.58-.907v4.283l2.182 1.256 1.58.908zm-8.65 9.654l5.514-3.148 2.756-1.572-3.757-2.163-4.323 2.489-3.941 2.27z"></path>
  </symbol>
  <symbol xmlns="http://www.w3.org/2000/svg" viewBox="0 0 34 32" id="library">
    <title>library</title>
    <path d="M32 30v-2h-2V16h2v-2h-6v2h2v12h-6V16h2v-2h-6v2h2v12h-6V16h2v-2h-6v2h2v12H6V16h2v-2H2v2h2v12H2v2H0v2h34v-2h-2zM16 0h2l16 10v2H0v-2L16 0z"></path>
  </symbol>
  <symbol xmlns="http://www.w3.org/2000/svg" viewBox="0 0 24 24" id="mailchimp">
    <title>MailChimp icon</title>
    <path d="M11.267 0C6.791-.015-1.82 10.246 1.397 12.964l.79.669a3.88 3.88 0 00-.22 1.792c.084.84.518 1.644 1.22 2.266.666.59 1.542.964 2.392.964 1.406 3.24 4.62 5.228 8.386 5.34 4.04.12 7.433-1.776 8.854-5.182.093-.24.488-1.316.488-2.267 0-.956-.54-1.352-.885-1.352-.01-.037-.078-.286-.172-.586-.093-.3-.19-.51-.19-.51.375-.563.382-1.065.332-1.35-.053-.353-.2-.653-.496-.964-.296-.311-.902-.63-1.753-.868l-.446-.124c-.002-.019-.024-1.053-.043-1.497-.014-.32-.042-.822-.197-1.315-.186-.668-.508-1.253-.911-1.627 1.112-1.152 1.806-2.422 1.804-3.511-.003-2.095-2.576-2.729-5.746-1.416l-.672.285A678.22 678.22 0 0012.7.504C12.304.159 11.817.002 11.267 0zm.073.873c.166 0 .322.019.465.058.297.084 1.28 1.224 1.28 1.224s-1.826 1.013-3.52 2.426c-2.28 1.757-4.005 4.311-5.037 7.082-.811.158-1.526.618-1.963 1.253-.261-.218-.748-.64-.834-.804-.698-1.326.761-3.902 1.781-5.357C5.834 3.44 9.37.867 11.34.873zm3.286 3.273c.04-.002.06.05.028.074-.143.11-.299.26-.413.414a.04.04 0 00.031.064c.659.004 1.587.235 2.192.574.041.023.012.103-.034.092-.915-.21-2.414-.369-3.97.01-1.39.34-2.45.863-3.224 1.426-.04.028-.086-.023-.055-.06.896-1.035 1.999-1.935 2.987-2.44.034-.018.07.019.052.052-.079.143-.23.447-.278.678-.007.035.032.063.062.042.615-.42 1.684-.868 2.622-.926zm3.023 3.205l.056.001a.896.896 0 01.456.146c.534.355.61 1.216.638 1.845.015.36.059 1.229.074 1.478.034.571.184.651.487.751.17.057.33.098.563.164.706.198 1.125.4 1.39.658.157.162.23.333.253.497.083.608-.472 1.36-1.942 2.041-1.607.746-3.557.935-4.904.785l-.471-.053c-1.078-.145-1.693 1.247-1.046 2.201.417.615 1.552 1.015 2.688 1.015 2.604 0 4.605-1.111 5.35-2.072a.987.987 0 00.06-.085c.036-.055.006-.085-.04-.054-.608.416-3.31 2.069-6.2 1.571 0 0-.351-.057-.672-.182-.255-.1-.788-.344-.853-.891 2.333.72 3.801.039 3.801.039a.072.072 0 00.042-.072.067.067 0 00-.074-.06s-1.911.283-3.718-.378c.197-.64.72-.408 1.51-.345a11.045 11.045 0 003.647-.394c.818-.234 1.892-.697 2.727-1.356.281.618.38 1.299.38 1.299s.219-.04.4.073c.173.106.299.326.213.895-.176 1.063-.628 1.926-1.387 2.72a5.714 5.714 0 01-1.666 1.244c-.34.18-.704.334-1.087.46-2.863.935-5.794-.093-6.739-2.3a3.545 3.545 0 01-.189-.522c-.403-1.455-.06-3.2 1.008-4.299.065-.07.132-.153.132-.256 0-.087-.055-.179-.102-.243-.374-.543-1.669-1.466-1.409-3.254.187-1.284 1.31-2.189 2.357-2.135.089.004.177.01.266.015.453.027.85.085 1.223.1.625.028 1.187-.063 1.853-.618.225-.187.405-.35.71-.401.028-.005.092-.028.215-.028zm.022 2.18a.42.42 0 00-.06.005c-.335.054-.347.468-.228 1.04.068.32.187.595.32.765.175-.02.343-.022.498 0 .089-.205.104-.557.024-.942-.112-.535-.261-.872-.554-.868zm-3.66 1.546a1.724 1.724 0 00-1.016.326c-.16.117-.311.28-.29.378.008.032.031.056.088.063.131.015.592-.217 1.122-.25.374-.023.684.094.923.2.239.104.386.173.443.113.037-.038.026-.11-.031-.204-.118-.192-.36-.387-.618-.497a1.601 1.601 0 00-.621-.129zm4.082.81c-.171-.003-.313.186-.317.42-.004.236.131.43.303.432.172.003.314-.185.318-.42.004-.236-.132-.429-.304-.432zm-3.58.172c-.05 0-.102.002-.155.008-.311.05-.483.152-.593.247-.094.082-.152.173-.152.237a.075.075 0 00.075.076c.07 0 .228-.063.228-.063a1.98 1.98 0 011.001-.104c.157.018.23.027.265-.026.01-.016.022-.049-.01-.1-.063-.103-.311-.269-.66-.275zm2.26.4c-.127 0-.235.051-.283.148-.075.154.035.363.246.466.21.104.443.063.52-.09.075-.155-.035-.364-.246-.467a.542.542 0 00-.237-.058zm-11.635.024c.048 0 .098 0 .149.003.73.04 1.806.6 2.052 2.19.217 1.41-.128 2.843-1.449 3.069-.123.02-.248.029-.374.026-1.22-.033-2.539-1.132-2.67-2.435-.145-1.44.591-2.548 1.894-2.811.117-.024.252-.04.398-.042zm-.07.927a1.144 1.144 0 00-.847.364c-.38.418-.439.988-.366 1.19.027.073.07.094.1.098.064.008.16-.039.22-.2a1.2 1.2 0 00.017-.052 1.58 1.58 0 01.157-.37.689.689 0 01.955-.199c.266.174.369.5.255.81-.058.161-.154.469-.133.721.043.511.357.717.64.738.274.01.466-.143.515-.256.029-.067.005-.107-.011-.125-.043-.053-.113-.037-.18-.021a.638.638 0 01-.16.022.347.347 0 01-.294-.148c-.078-.12-.073-.3.013-.504.011-.028.025-.058.04-.092.138-.308.368-.825.11-1.317-.195-.37-.513-.602-.894-.65a1.135 1.135 0 00-.138-.01z"></path>
  </symbol>
  <symbol xmlns="http://www.w3.org/2000/svg" viewBox="0 0 32 32" id="nodejs">
    <title>nodejs</title>
    <path d="M15.247.204L2.754 7.444a1.51 1.51 0 00-.751 1.311V23.24c0 .539.287 1.04.752 1.309l12.493 7.247c.467.271 1.04.271 1.507 0l12.488-7.244c.467-.273.752-.771.753-1.309V8.755a1.52 1.52 0 00-.755-1.312L16.756.203a1.498 1.498 0 00-1.507 0z"></path>
  </symbol>
  <symbol xmlns="http://www.w3.org/2000/svg" viewBox="0 0 32 32" id="npm">
    <title>npm</title>
    <path d="M0 9.779v10.667h8.888v1.776H16v-1.776h16V9.779H0zm8.888 8.885H7.112v-5.333h-1.78v5.333H1.78v-7.108h7.108v7.108zm5.333 0v1.781h-3.553v-8.889h7.112v7.109l-3.559-.001zm16.002 0H28.45v-5.333h-1.781v5.333h-1.78v-5.333h-1.773v5.333h-3.561v-7.108h10.669v7.108z"></path>
    <path d="M14.22 13.333H16v3.556h-1.78v-3.556z"></path>
  </symbol>
  <symbol xmlns="http://www.w3.org/2000/svg" viewBox="0 0 32 32" id="rocket">
    <title>rocket</title>
    <path d="M22 2L12 12H6l-6 8s6.357-1.77 10.065-.94L0 32l13.184-10.255C15.023 25.953 12 32 12 32l8-6v-6l10-10 2-10-10 2z"></path>
  </symbol>
  <symbol xmlns="http://www.w3.org/2000/svg" viewBox="0 0 24 24" id="school">
    <title>school</title>
    <path d="M12 3l11.016 6v8.016H21v-6.938L12 15 .984 9zM5.016 13.172L12 17.016l6.984-3.844v4.031L12 21l-6.984-3.797v-4.031z"></path>
  </symbol>
  <symbol xmlns="http://www.w3.org/2000/svg" viewBox="0 0 32 32" id="stackoverflow">
    <title>stackoverflow</title>
    <path d="M32 20v12H0V20h4v8h24v-8zM6 22h20v4H6zm.473-4.329l.866-3.905 19.526 4.328-.866 3.905zm2.266-8.029l1.69-3.625 18.126 8.452-1.69 3.625zm22.252 1.654l-2.435 3.173L12.689 2.294 14.45 0h1.82z"></path>
  </symbol>
  <symbol xmlns="http://www.w3.org/2000/svg" viewBox="0 0 32 32" id="user">
    <title>user</title>
    <path d="M18 22.082v-1.649c2.203-1.241 4-4.337 4-7.432 0-4.971 0-9-6-9s-6 4.029-6 9c0 3.096 1.797 6.191 4 7.432v1.649C7.216 22.637 2 25.97 2 30h28c0-4.03-5.216-7.364-12-7.918z"></path>
  </symbol>
  <symbol xmlns="http://www.w3.org/2000/svg" viewBox="0 0 32 32" id="user-tie">
    <title>user-tie</title>
    <path d="M10 6a6 6 0 1112 0 6 6 0 01-12 0zm14.002 8h-1.107l-6.222 12.633L19 15l-3-3-3 3 2.327 11.633L9.105 14H7.998C4 14 4 16.687 4 20v10h24V20c0-3.313 0-6-3.998-6z"></path>
  </symbol>
  <symbol xmlns="http://www.w3.org/2000/svg" viewBox="0 0 24 24" id="woocommerce">
    <title>WooCommerce icon</title>
    <path d="M.754 9.58a.754.754 0 00-.754.758v2.525c0 .42.339.758.758.758h3.135l1.431.799-.326-.799h2.373a.757.757 0 00.758-.758v-2.525a.757.757 0 00-.758-.758H.754zm2.709.445h.03a.286.286 0 01.179.067.26.26 0 01.103.19.29.29 0 01-.033.16c-.13.239-.236.64-.322 1.199-.083.541-.114.965-.094 1.267a.392.392 0 01-.039.219.213.213 0 01-.176.12c-.086.006-.177-.034-.263-.124-.31-.316-.555-.788-.735-1.416-.216.425-.375.744-.478.957-.196.376-.363.568-.502.578-.09.007-.166-.069-.233-.228-.17-.436-.352-1.277-.548-2.524a.297.297 0 01.054-.222c.047-.064.116-.095.21-.102.169-.013.265.065.288.238.103.695.217 1.284.336 1.766l.727-1.387c.066-.126.15-.192.25-.199.146-.01.237.083.273.28.083.441.188.817.315 1.136.086-.844.233-1.453.44-1.828a.255.255 0 01.218-.147zm1.293.36a.84.84 0 01.18.02c.232.05.411.177.53.386.107.18.161.395.161.654 0 .343-.087.654-.26.94-.2.332-.459.5-.781.5a.88.88 0 01-.18-.022.763.763 0 01-.531-.384 1.287 1.287 0 01-.158-.659c0-.342.085-.655.258-.937.202-.333.462-.498.78-.498zm2.084 0a.84.84 0 01.18.02c.236.05.411.177.53.386.107.18.16.395.16.654 0 .343-.086.654-.259.94-.2.332-.459.5-.781.5a.88.88 0 01-.18-.022.763.763 0 01-.531-.384 1.287 1.287 0 01-.16-.659c0-.342.087-.655.26-.937.202-.333.462-.498.78-.498zm4.437.047c-.305 0-.546.102-.718.304-.173.203-.256.49-.256.856 0 .395.086.697.256.906.17.21.418.316.744.316.315 0 .559-.107.728-.316.17-.21.256-.504.256-.883s-.087-.673-.26-.879c-.176-.202-.424-.304-.75-.304zm-1.466.002a1.13 1.13 0 00-.84.326c-.223.22-.332.499-.332.838 0 .362.108.658.328.88.22.223.505.336.861.336.103 0 .22-.016.346-.052v-.54a1.1 1.1 0 01-.303.051.545.545 0 01-.422-.177.696.696 0 01-.16-.48c0-.19.053-.348.156-.468a.498.498 0 01.397-.181c.103 0 .212.015.332.049v-.537a1.394 1.394 0 00-.363-.045zm12.414 0a1.135 1.135 0 00-.84.326c-.223.22-.332.499-.332.838 0 .362.108.658.328.88.22.223.506.336.861.336.103 0 .22-.016.346-.052v-.54a1.094 1.094 0 01-.303.051.545.545 0 01-.422-.177.696.696 0 01-.16-.48c0-.19.053-.348.156-.468a.498.498 0 01.397-.181c.103 0 .212.015.332.049v-.537a1.394 1.394 0 00-.363-.045zm-9.598.06l-.29 2.264h.579l.156-1.559.395 1.559h.412l.379-1.555.164 1.555h.603l-.304-2.264h-.791l-.12.508c-.03.13-.06.264-.087.4l-.067.352a29.97 29.97 0 00-.258-1.26h-.771zm2.768 0l-.29 2.264h.579l.156-1.559.396 1.559h.412l.375-1.555.165 1.555h.603l-.305-2.264h-.789l-.119.508c-.03.13-.06.264-.086.4l-.066.352a29.87 29.87 0 00-.26-1.26h-.771zm3.988 0v2.264h.611v-1.031h.012l.494 1.03h.645l-.489-1.019a.61.61 0 00.37-.552.598.598 0 00-.25-.506c-.167-.123-.394-.186-.68-.186h-.713zm3.377 0v2.264H24v-.483h-.63v-.414h.54v-.468h-.54v-.416h.626v-.483H22.76zm-4.793.004v2.264h1.24v-.483h-.627v-.416h.541v-.468h-.54v-.415h.622v-.482h-1.236zm2.025.432c.146.003.25.025.313.072.063.046.091.12.091.227 0 .156-.135.236-.404.24v-.54zm-15.22.011c-.104 0-.205.069-.301.211a1.078 1.078 0 00-.2.639c0 .096.02.2.06.303.049.13.117.198.196.215.083.016.173-.02.27-.106.123-.11.205-.273.252-.492.016-.077.023-.16.023-.246 0-.097-.02-.2-.06-.303-.05-.13-.116-.198-.196-.215a.246.246 0 00-.045-.006zm2.083 0c-.103 0-.204.069-.3.211a1.078 1.078 0 00-.2.639c0 .096.02.2.06.303.049.13.117.198.196.215.083.016.173-.02.27-.106.123-.11.205-.273.252-.492.013-.077.023-.16.023-.246 0-.097-.02-.2-.06-.303-.05-.13-.116-.198-.196-.215a.246.246 0 00-.045-.006zm4.428.006c.233 0 .354.218.354.66-.004.273-.038.46-.098.553a.293.293 0 01-.262.139.266.266 0 01-.242-.139c-.056-.093-.084-.28-.084-.562 0-.436.11-.65.332-.65z"></path>
  </symbol>
  <symbol xmlns="http://www.w3.org/2000/svg" viewBox="0 0 32 32" id="clipboard">
    <title>clipboard</title>
    <path d="M29 4h-9a4 4 0 00-8 0H3a1 1 0 00-1 1v26a1 1 0 001 1h26a1 1 0 001-1V5a1 1 0 00-1-1zM16 2a2 2 0 11.001 3.999A2 2 0 0116 2zm12 28H4V6h4v3a1 1 0 001 1h14a1 1 0 001-1V6h4v24z"></path>
    <path d="M14 26.828l-6.414-7.414 1.828-1.828L14 21.172l8.586-7.586 1.829 1.828z"></path>
  </symbol>
  <symbol xmlns="http://www.w3.org/2000/svg" viewBox="0 0 32 32" id="gulp">
    <title>gulp</title>
    <path d="M20.208 25.909l.848-1.445s-1.925.788-5.147.788c-3.224 0-5.12-.757-5.12-.757l.948 1.577.336 4.972c0 .537 1.752.957 3.915.957 2.164 0 3.917-.419 3.917-.957l.305-5.113v-.021zm.82-9.394c-1.025.061-1.537 1.204-2.052 2.407-.191.44-.84 2.316-1.264 2.084-.424-.231.551-1.772.825-2.689-.316.232-1.473 1.132-1.772.287-.477.419-1.505.64-1.389-.439-.255.46-.828 1.097-1.519.819-.897-.34.527-3.215.88-3.076.355.161-.071.8-.181 1.059-.248.559-.531 1.277-.34 1.417.32.259 1.205-.937 1.225-.959.165-.22.639-1.639 1.017-1.476.38.179-.948 2.055-.453 2.435.101.08.511-.04.759-.319.16-.16.104-.56.639-1.837.539-1.279 1.019-2.875 1.385-2.755s.065.937-.068 1.257c-.619 1.437-1.691 3.792-1.187 3.613.499-.18.759-.18 1.257-.759s.46-1.536.799-1.516c.32.019.28.339.2.557.32-.36 1.536-1.157 1.817-.379.339.917-1.739 2.256-1.219 2.176.5-.06 1.317-.579 1.677-1.057l.959-8.667s-.979.8-7.148.8-7.045-.779-7.045-.779l.817 7.907c.44-1.237 1.477-3.752 3.096-3.653.739.04 1.737 1.479.877 1.519-.36.02-.4-.719-.819-.819-.319-.061-.739.18-1.017.46-.539.539-1.739 2.675-1.579 3.735.2 1.357 1.876-.461 2.156-1 .199-.377.339-1.517.757-1.397.44.12-.039 1.299-.36 2.316-.36 1.159-.539 2.375-.976 2.235-.44-.139.279-1.636.237-1.896-.417.399-1.177 1.36-2.175.879l.499 4.932s1.359 1.057 5.431 1.057 5.491-1.057 5.491-1.057l.639-5.711c-.519.52-2.156 1.417-2.256.4-.079-.819 1.777-1.997 1.299-2.019l.08-.092zm2.1-15.623l-3.545 3.733-.648 2.535c2.508.16 4.252.515 4.252.925 0 .559-3.219 1.009-7.188 1.009s-7.187-.457-7.187-1.017c0-.559 3.219-1.019 7.188-1.019.564 0 1.125 0 1.685.021l.748-3.035L22.2.051c.091-.12.373-.02.632.2.259.199.399.459.319.579v.04l-.023.021zm-5.112 7.727s-.697 0-.813-.107a.187.187 0 01-.048-.12c0-.077.052-.121.12-.147l.059.1c-.028.008-.039.02-.044.031 0 .055.419.092.74.088.319-.004.708-.031.711-.085 0-.016-.031-.031-.081-.044l.06-.096c.084.027.156.077.156.161 0 .147-.188.171-.307.188-.143.02-.549.031-.549.031h-.003z"></path>
  </symbol>
  <symbol xmlns="http://www.w3.org/2000/svg" viewBox="0 0 32 32" id="javascript">
    <title>javascript</title>
    <path d="M0 0h32v32H0V0zm29.379 24.368c-.233-1.46-1.184-2.687-4.004-3.831-.981-.46-2.072-.78-2.396-1.52-.121-.44-.14-.68-.061-.94.2-.861 1.22-1.12 2.02-.88.52.16 1 .56 1.301 1.2 1.379-.901 1.379-.901 2.34-1.5-.36-.56-.539-.801-.781-1.04-.84-.94-1.959-1.42-3.779-1.379l-.94.119c-.901.22-1.76.7-2.28 1.34-1.52 1.721-1.081 4.721.759 5.961 1.82 1.36 4.481 1.659 4.821 2.94.32 1.56-1.16 2.06-2.621 1.88-1.081-.24-1.68-.781-2.34-1.781l-2.44 1.401c.28.64.6.919 1.08 1.479 2.32 2.341 8.12 2.221 9.161-1.339.039-.12.32-.94.099-2.2l.061.089zm-11.978-9.66h-2.997c0 2.584-.012 5.152-.012 7.74 0 1.643.084 3.151-.184 3.615-.44.919-1.573.801-2.088.64-.528-.261-.796-.621-1.107-1.14-.084-.14-.147-.261-.169-.261l-2.433 1.5c.407.84 1 1.563 1.765 2.023 1.14.68 2.672.9 4.276.54 1.044-.301 1.944-.921 2.415-1.881.68-1.24.536-2.76.529-4.461.016-2.739 0-5.479 0-8.239l.005-.075z"></path>
  </symbol>
  <symbol xmlns="http://www.w3.org/2000/svg" viewBox="0 0 32 32" id="meteor">
    <title>meteor</title>
    <path d="M0 .312l29.216 27.383s.549.767-.165 1.535c-.713.768-1.648.111-1.648.111L0 .313zm8.677 2.744l22.68 20.851s.551.768-.164 1.536c-.712.768-1.647.111-1.647.111L8.677 3.057zM2.581 8.928l22.68 20.851s.549.768-.164 1.536-1.647.109-1.647.109L2.581 8.928zm13.431-3.513L31.86 19.984s.383.535-.116 1.073-1.151.077-1.151.077L16.012 5.414zM4.589 15.731l15.848 14.568s.38.533-.117 1.071c-.5.537-1.151.079-1.151.079L4.589 15.732zm18.916-6.914l7.235 6.607s.189.251-.059.503c-.247.251-.571.036-.571.036l-6.605-7.145zM8.237 22.975l7.233 6.608s.192.251-.056.503-.569.035-.569.035l-6.608-7.145z"></path>
  </symbol>
  <symbol xmlns="http://www.w3.org/2000/svg" viewBox="0 0 32 32" id="php">
    <title>php</title>
    <path d="M9.347 13.609H8.088l-.687 3.531h1.117c.741 0 1.293-.14 1.656-.419.363-.28.607-.745.733-1.399.123-.627.067-1.069-.165-1.327-.233-.257-.697-.387-1.396-.387z"></path>
    <path d="M16 7.584C7.164 7.584 0 11.352 0 16s7.164 8.417 16 8.417S32 20.648 32 16s-7.164-8.416-16-8.416zm-4.347 9.935a3.246 3.246 0 01-1.223.735c-.448.144-1.02.219-1.713.219H7.142l-.436 2.241H4.869l1.64-8.435h3.533c1.063 0 1.837.279 2.325.837.488.557.635 1.336.44 2.336a3.799 3.799 0 01-.416 1.148l.01-.019c-.191.34-.44.653-.748.937zm5.366.953l.724-3.732c.084-.424.052-.715-.091-.868-.143-.155-.448-.232-.916-.232H15.28l-.939 4.833h-1.824l1.64-8.436h1.823l-.436 2.243h1.624c1.023 0 1.727.179 2.115.535s.504.933.351 1.732l-.763 3.925h-1.852zm10.129-3.02c-.08.425-.221.803-.416 1.148l.01-.018c-.191.34-.44.653-.748.937a3.247 3.247 0 01-1.2.728l-.023.007c-.448.144-1.02.219-1.715.219h-1.573l-.436 2.243H19.21l1.64-8.435h3.532c1.063 0 1.837.279 2.325.837.488.556.636 1.335.441 2.335z"></path>
    <path d="M23.688 13.609h-1.257l-.688 3.531h1.117c.743 0 1.295-.14 1.656-.419.363-.28.607-.745.735-1.399.123-.627.065-1.069-.167-1.327s-.699-.387-1.396-.387z"></path>
  </symbol>
  <symbol xmlns="http://www.w3.org/2000/svg" viewBox="0 0 32 32" id="json">
    <title>json</title>
    <path d="M16.057 31.957a14.875 14.875 0 001.901-.125 15.724 15.724 0 004.195-1.151 16.528 16.528 0 005.057-3.391 15.977 15.977 0 003.253-4.569c.679-1.463 1.159-3.032 1.36-4.635.199-1.547.18-3.128-.06-4.665a15.988 15.988 0 00-1.057-3.717c-.32-.748-.7-1.468-1.139-2.156-1.557-2.449-3.815-4.419-6.413-5.735A17.159 17.159 0 0020.258.654h-.007c.159.084.32.176.46.268.16.099.319.195.468.3a11.91 11.91 0 012.079 1.773c1.417 1.527 2.396 3.397 2.957 5.388.379 1.309.579 2.664.66 4.023.059.991.059 1.988-.063 2.972-.199 1.693-.739 3.347-1.637 4.795a9.976 9.976 0 01-2.537 2.779c-1.659 1.237-3.836 1.976-5.915 1.485a5.202 5.202 0 01-.997-.344 6.218 6.218 0 01-1.039-.599 8.108 8.108 0 01-1.659-1.475 8.67 8.67 0 01-1.399-2.329 9.815 9.815 0 01-.659-3.387c-.04-1.697.3-3.404 1.139-4.893a8.582 8.582 0 012.217-2.557c.3-.237.619-.444.939-.639l.021-.009a6.838 6.838 0 00-1.921-.16 6.618 6.618 0 00-1.637.319c-.479.16-.939.361-1.359.6-.34.199-.677.42-.977.66-.281.24-.56.479-.82.74-1.497 1.537-2.357 3.576-2.696 5.675-.2 1.297-.2 2.615-.121 3.935.14 1.859.521 3.715 1.26 5.415a11.353 11.353 0 001.797 2.897 10.867 10.867 0 004.176 2.975c.9.361 1.859.62 2.817.72.099.02.199.02.279.02l-.028-.043zm-3.912-.53a5.409 5.409 0 01-.6-.304c-.199-.111-.4-.224-.599-.345a11.357 11.357 0 01-2.119-1.7c-1.459-1.517-2.436-3.423-2.996-5.441-.379-1.379-.58-2.803-.66-4.229a16.157 16.157 0 01.061-2.776c.18-1.676.66-3.335 1.499-4.773a9.183 9.183 0 012.377-2.737 8.311 8.311 0 012.177-1.2 7.142 7.142 0 014.696-.06c.039 0 .039 0 .06.04.02.02.06.02.08.04.06.021.139.06.22.099.319.16.639.361.939.56a8.392 8.392 0 012.796 3.336c.56 1.219.82 2.579.841 3.917.019 1.439-.24 2.876-.86 4.195a8.56 8.56 0 01-3.517 3.776c.12.04.24.06.361.1.3.059.599.099.917.099 1.957.06 3.856-.879 5.253-2.196.26-.24.5-.5.72-.78.3-.36.58-.719.819-1.097.319-.5.58-1 .819-1.539.301-.719.539-1.459.679-2.219.261-1.339.281-2.696.199-4.035-.18-2.696-.897-5.393-2.456-7.632-.24-.339-.479-.659-.74-.959a13.25 13.25 0 00-1.417-1.379c-.56-.46-1.18-.879-1.817-1.22a13.216 13.216 0 00-2.256-.797l-.4-.08c-.279-.04-.56-.059-.845-.08-.433-.02-.892-.013-1.353.021-.939.06-1.883.213-2.816.449C7.732 1.636 3.818 4.754 1.734 8.892a15.783 15.783 0 00-1.416 4.176 15.746 15.746 0 00-.139 5.033c.16 1.36.499 2.697 1.037 3.969.303.76.681 1.499 1.1 2.197 1.459 2.377 3.577 4.315 6.013 5.653.917.521 1.877.92 2.876 1.26.301.099.6.199.919.279l.021-.032z"></path>
  </symbol>
  <symbol xmlns="http://www.w3.org/2000/svg" viewBox="0 0 32 32" id="wordpress">
    <title>wordpress</title>
    <path d="M28.625 9.1a14.342 14.342 0 011.757 6.9c0 5.305-2.875 9.941-7.151 12.433l4.393-12.703c.82-2.053 1.093-3.695 1.093-5.152 0-.54-.035-1.04-.093-1.48zm-10.641.139c.863-.04 1.643-.14 1.643-.14.776-.1.685-1.24-.089-1.199 0 0-2.34.18-3.84.18-1.419 0-3.8-.2-3.8-.2-.78-.04-.881 1.14-.1 1.18 0 0 .72.081 1.5.12l2.24 6.14-3.16 9.44L7.139 9.2c.865-.04 1.645-.133 1.645-.133.78-.1.688-1.24-.087-1.195 0 0-2.328.184-3.832.184-.267 0-.584-.011-.92-.02C6.548 4.2 10.98 1.62 16 1.62c3.745 0 7.153 1.429 9.715 3.777-.061-.004-.121-.012-.188-.012-1.413 0-2.416 1.231-2.416 2.552 0 1.187.684 2.191 1.413 3.375.548.96 1.187 2.191 1.187 3.969 0 1.22-.472 2.659-1.095 4.639l-1.433 4.78-5.2-15.48.001.019zM16 30.379c-1.412 0-2.775-.204-4.064-.583l4.316-12.541 4.42 12.116c.032.071.067.135.104.199-1.493.524-3.1.812-4.776.812zM1.615 16c0-2.085.448-4.067 1.247-5.853l6.859 18.799c-4.795-2.332-8.104-7.251-8.105-12.945zM16 0C7.18 0 0 7.18 0 16s7.18 16 16 16 16-7.18 16-16S24.82 0 16 0z"></path>
  </symbol>
  <symbol xmlns="http://www.w3.org/2000/svg" viewBox="0 0 32 32" id="sass">
    <title>sass</title>
    <path d="M16 0c8.836 0 16 7.164 16 16s-7.164 16-16 16-16-7.164-16-16 7.164-16 16-16zM12.82 21.331c0.233 0.86 0.208 1.664-0.032 2.389l-0.087 0.24c-0.032 0.081-0.069 0.16-0.104 0.235-0.187 0.387-0.435 0.747-0.74 1.080-0.931 1.012-2.229 1.396-2.787 1.073-0.6-0.349-0.301-1.78 0.779-2.92 1.161-1.224 2.827-2.012 2.827-2.012v-0.004l0.144-0.081zM26.035 6.849c-0.723-2.844-5.436-3.779-9.896-2.193-2.652 0.943-5.525 2.424-7.591 4.356-2.457 2.295-2.848 4.295-2.687 5.131 0.569 2.948 4.609 4.876 6.271 6.307v0.008c-0.489 0.24-4.075 2.039-4.915 3.9-0.9 1.96 0.14 3.361 0.82 3.54 2.1 0.581 4.26-0.48 5.42-2.199 1.12-1.681 1.021-3.841 0.539-4.901 0.661-0.18 1.44-0.26 2.44-0.139 2.801 0.32 3.361 2.080 3.24 2.8-0.12 0.719-0.697 1.139-0.899 1.259-0.2 0.121-0.26 0.16-0.241 0.241 0.020 0.12 0.121 0.12 0.28 0.1 0.22-0.040 1.461-0.6 1.521-1.961 0.060-1.72-1.581-3.639-4.5-3.6-1.2 0.021-1.961 0.121-2.5 0.341-0.040-0.060-0.081-0.1-0.14-0.14-1.8-1.94-5.14-3.3-5-5.88 0.040-0.94 0.38-3.419 6.4-6.419 4.94-2.461 8.881-1.78 9.561-0.28 0.977 2.139-2.101 6.12-7.241 6.699-1.96 0.22-2.98-0.539-3.241-0.82-0.279-0.3-0.319-0.32-0.419-0.259-0.16 0.080-0.060 0.34 0 0.5 0.16 0.4 0.78 1.1 1.861 1.46 0.939 0.3 3.24 0.479 6-0.6 3.099-1.199 5.519-4.54 4.819-7.34l0.097 0.089z"></path>
  </symbol>
  <symbol xmlns="http://www.w3.org/2000/svg" viewBox="0 0 32 32" id="jquery">
    <title>jquery</title>
    <path d="M2.045 7.832c-2.831 4.067-2.48 9.356-0.316 13.675 0.049 0.105 0.104 0.205 0.157 0.305 0.031 0.069 0.065 0.133 0.103 0.199 0.017 0.037 0.041 0.076 0.063 0.111 0.035 0.069 0.072 0.136 0.108 0.203l0.209 0.353c0.039 0.065 0.076 0.129 0.12 0.195 0.073 0.125 0.16 0.249 0.236 0.375 0.035 0.052 0.067 0.104 0.105 0.156 0.148 0.232 0.284 0.425 0.428 0.612l-0.015-0.020c0.104 0.143 0.208 0.281 0.32 0.42 0.036 0.051 0.076 0.101 0.113 0.152l0.295 0.359c0.036 0.041 0.072 0.089 0.111 0.132 0.131 0.157 0.269 0.311 0.408 0.465 0 0.003 0.004 0.005 0.007 0.009 0.172 0.217 0.358 0.409 0.56 0.582l0.006 0.005c0.107 0.109 0.213 0.219 0.327 0.325l0.135 0.129c0.148 0.139 0.296 0.277 0.452 0.411 0.003 0 0.004 0.003 0.007 0.004l0.076 0.067c0.136 0.119 0.273 0.237 0.413 0.347l0.167 0.14c0.113 0.091 0.231 0.177 0.347 0.267l0.181 0.139c0.124 0.093 0.256 0.185 0.383 0.276 0.047 0.033 0.093 0.067 0.141 0.097l0.039 0.031 0.375 0.247 0.16 0.107c0.196 0.125 0.391 0.244 0.584 0.361 0.056 0.028 0.112 0.059 0.164 0.091 0.144 0.083 0.293 0.167 0.439 0.244 0.080 0.045 0.163 0.084 0.245 0.125 0.1 0.056 0.204 0.111 0.311 0.167 0.029 0.009 0.054 0.019 0.077 0.032l-0.002-0.001c0.044 0.020 0.085 0.041 0.128 0.063 0.16 0.080 0.327 0.156 0.5 0.232 0.032 0.013 0.067 0.027 0.101 0.045 0.192 0.084 0.384 0.164 0.583 0.243 0.045 0.013 0.093 0.036 0.14 0.053 0.18 0.068 0.365 0.137 0.548 0.203l0.067 0.024c0.204 0.069 0.405 0.136 0.612 0.2 0.048 0.013 0.097 0.031 0.148 0.044 0.212 0.064 0.417 0.14 0.631 0.181 13.68 2.493 17.656-8.225 17.656-8.225-3.34 4.349-9.267 5.496-14.88 4.22-0.208-0.048-0.416-0.115-0.625-0.176-0.382-0.11-0.633-0.192-0.882-0.28l0.126 0.039-0.083-0.032c-0.181-0.061-0.356-0.129-0.533-0.197-0.034-0.015-0.082-0.033-0.132-0.050l-0.015-0.004c-0.196-0.079-0.387-0.16-0.576-0.244-0.041-0.013-0.076-0.032-0.117-0.048-0.35-0.155-0.508-0.231-0.665-0.308l0.184 0.081c-0.049-0.021-0.093-0.044-0.141-0.069-0.125-0.059-0.251-0.125-0.373-0.189-0.114-0.054-0.196-0.097-0.276-0.142l0.027 0.014c-0.151-0.080-0.301-0.167-0.452-0.249-0.045-0.032-0.097-0.059-0.149-0.088-0.289-0.169-0.479-0.288-0.668-0.409l0.084 0.050c-0.064-0.040-0.115-0.075-0.165-0.111l0.008 0.006c-0.172-0.106-0.308-0.197-0.44-0.291l0.024 0.017c-0.047-0.031-0.089-0.064-0.137-0.097-0.17-0.118-0.298-0.211-0.424-0.306l0.032 0.023c-0.056-0.045-0.116-0.088-0.176-0.133-0.117-0.092-0.236-0.18-0.353-0.277l-0.157-0.125c-0.174-0.14-0.319-0.263-0.461-0.388l0.016 0.013c-0.015-0.014-0.031-0.028-0.048-0.039l-0.001-0.001-0.463-0.421-0.133-0.125c-0.109-0.111-0.221-0.217-0.333-0.327l-0.129-0.133c-0.138-0.137-0.273-0.278-0.404-0.421l-0.008-0.009-0.020-0.021c-0.141-0.155-0.279-0.312-0.417-0.472-0.036-0.041-0.069-0.085-0.107-0.129l-0.301-0.369c-0.105-0.131-0.254-0.326-0.4-0.522l-0.054-0.075c-3.113-4.251-4.24-10.117-1.748-14.929z"></path>
    <path d="M10.828 4.407c-2.052 2.945-1.936 6.884-0.339 9.999 0.296 0.584 0.596 1.078 0.928 1.547l-0.025-0.038c0.307 0.44 0.645 0.96 1.056 1.315 0.143 0.163 0.297 0.32 0.459 0.479l0.12 0.12c0.152 0.147 0.308 0.291 0.467 0.433l0.020 0.017c0.16 0.141 0.34 0.29 0.524 0.435l0.028 0.021c0.045 0.031 0.084 0.067 0.128 0.097 0.187 0.144 0.375 0.283 0.569 0.42l0.020 0.012c0.083 0.060 0.171 0.115 0.264 0.173 0.037 0.024 0.080 0.056 0.12 0.080 0.141 0.091 0.28 0.176 0.423 0.263 0.023 0.009 0.043 0.021 0.064 0.031 0.12 0.073 0.251 0.144 0.376 0.209 0.044 0.027 0.087 0.047 0.132 0.072 0.089 0.044 0.177 0.091 0.263 0.136l0.043 0.019c0.18 0.088 0.364 0.171 0.544 0.253 0.045 0.017 0.084 0.032 0.123 0.051 0.148 0.064 0.299 0.125 0.447 0.183 0.067 0.023 0.129 0.049 0.192 0.069 0.136 0.051 0.279 0.097 0.413 0.144l0.187 0.060c0.195 0.060 0.392 0.139 0.597 0.172 10.56 1.751 13.005-6.383 13.005-6.383-2.201 3.168-6.461 4.677-11.001 3.499-0.277-0.071-0.476-0.13-0.673-0.195l0.076 0.022c-0.064-0.017-0.12-0.037-0.181-0.056-0.139-0.048-0.281-0.095-0.416-0.145l-0.192-0.072c-0.149-0.060-0.301-0.116-0.447-0.18-0.045-0.020-0.087-0.033-0.121-0.053-0.187-0.084-0.375-0.167-0.556-0.256l-0.275-0.143-0.159-0.080c-0.123-0.064-0.236-0.131-0.353-0.2-0.033-0.016-0.060-0.031-0.086-0.047l0.003 0.002c-0.141-0.088-0.288-0.173-0.423-0.264-0.045-0.025-0.087-0.056-0.129-0.083l-0.277-0.181c-0.192-0.133-0.38-0.277-0.569-0.416-0.043-0.039-0.084-0.071-0.125-0.105-1.996-1.569-3.571-3.715-4.317-6.144-0.787-2.525-0.613-5.357 0.745-7.656z"></path>
    <path d="M18.213 1.845c-1.211 1.776-1.327 3.981-0.493 5.94 0.885 2.080 2.696 3.713 4.805 4.487 0.087 0.033 0.171 0.061 0.26 0.093l0.117 0.036c0.123 0.039 0.247 0.084 0.373 0.112 5.835 1.125 7.413-2.996 7.839-3.601-1.389 1.995-3.719 2.473-6.576 1.779-0.279-0.070-0.509-0.143-0.732-0.228l0.044 0.015c-0.337-0.119-0.609-0.233-0.873-0.361l0.050 0.022c-0.55-0.269-1.022-0.562-1.462-0.896l0.021 0.016c-2.56-1.939-4.145-5.64-2.476-8.655z"></path>
  </symbol>
  <symbol xmlns="http://www.w3.org/2000/svg" viewBox="0 0 32 32" id="react">
    <title>react</title>
        <path d="M18.852 16c0 1.575-1.277 2.852-2.852 2.852s-2.852-1.277-2.852-2.852c0-1.575 1.277-2.852 2.852-2.852s2.852 1.277 2.852 2.852z"></path>
        <path d="M8.011 21.673l-0.629-0.16c-4.691-1.185-7.381-3.197-7.381-5.519s2.691-4.333 7.381-5.519l0.629-0.159 0.177 0.624c0.545 1.86 1.163 3.443 1.899 4.957l-0.082-0.186 0.135 0.284-0.135 0.284c-0.656 1.329-1.275 2.912-1.761 4.551l-0.056 0.22-0.177 0.623zM7.089 11.933c-3.565 1.001-5.753 2.533-5.753 4.061 0 1.527 2.188 3.059 5.753 4.061 0.512-1.62 1.046-2.965 1.662-4.263l-0.086 0.202c-0.531-1.098-1.066-2.443-1.511-3.828l-0.065-0.234zM23.989 21.673l-0.177-0.625c-0.544-1.859-1.162-3.441-1.9-4.954l0.081 0.184-0.135-0.284 0.135-0.284c0.656-1.329 1.275-2.911 1.762-4.55l0.056-0.221 0.177-0.624 0.631 0.159c4.689 1.185 7.38 3.197 7.38 5.52s-2.691 4.333-7.38 5.519l-0.631 0.16zM23.335 15.995c0.64 1.385 1.169 2.747 1.576 4.061 3.567-1.003 5.753-2.535 5.753-4.061 0-1.528-2.188-3.059-5.753-4.061-0.511 1.619-1.045 2.963-1.662 4.262l0.086-0.2z"></path>
        <path d="M7.080 11.927l-0.177-0.623c-1.319-4.648-0.919-7.979 1.097-9.141 1.977-1.141 5.152 0.207 8.479 3.621l0.453 0.465-0.453 0.465c-1.146 1.19-2.207 2.482-3.162 3.853l-0.068 0.103-0.18 0.257-0.313 0.027c-1.875 0.151-3.596 0.439-5.264 0.86l0.218-0.047-0.629 0.159zM9.608 3.087c-0.357 0-0.673 0.077-0.94 0.231-1.325 0.764-1.56 3.42-0.647 7.004 1.21-0.285 2.681-0.521 4.18-0.658l0.131-0.010c0.894-1.264 1.792-2.37 2.756-3.414l-0.020 0.022c-2.080-2.025-4.049-3.175-5.46-3.175zM22.393 30.236c-0.001 0-0.001 0 0 0-1.9 0-4.34-1.431-6.872-4.031l-0.453-0.465 0.453-0.465c1.146-1.19 2.206-2.482 3.16-3.854l0.068-0.103 0.18-0.257 0.312-0.027c1.875-0.15 3.597-0.438 5.267-0.858l-0.218 0.046 0.629-0.159 0.179 0.624c1.316 4.645 0.917 7.977-1.099 9.139-0.449 0.259-0.988 0.411-1.562 0.411-0.016 0-0.031-0-0.047-0l0.002 0zM16.932 25.728c2.080 2.025 4.049 3.175 5.46 3.175h0.001c0.356 0 0.673-0.077 0.939-0.231 1.325-0.764 1.561-3.421 0.647-7.005-1.212 0.286-2.682 0.522-4.182 0.658l-0.13 0.010c-0.893 1.265-1.791 2.371-2.755 3.416l0.020-0.022z"></path>
        <path d="M24.92 11.927l-0.629-0.159c-1.453-0.376-3.175-0.664-4.939-0.806l-0.111-0.007-0.312-0.027-0.18-0.257c-1.021-1.474-2.082-2.766-3.237-3.966l0.009 0.010-0.453-0.465 0.453-0.465c3.325-3.413 6.499-4.761 8.479-3.621 2.016 1.163 2.416 4.493 1.099 9.14l-0.179 0.624zM19.667 9.653c1.523 0.139 2.969 0.364 4.312 0.668 0.915-3.584 0.679-6.24-0.647-7.004-1.317-0.761-3.793 0.405-6.4 2.944 0.943 1.022 1.841 2.128 2.666 3.289l0.069 0.103zM9.608 30.236c-0.014 0-0.030 0-0.046 0-0.574 0-1.113-0.152-1.577-0.419l0.015 0.008c-2.016-1.161-2.416-4.492-1.097-9.139l0.176-0.624 0.629 0.159c1.54 0.388 3.239 0.661 5.047 0.812l0.313 0.027 0.179 0.257c1.022 1.475 2.083 2.767 3.239 3.967l-0.010-0.010 0.453 0.465-0.453 0.465c-2.531 2.6-4.971 4.031-6.868 4.031zM8.021 21.667c-0.915 3.584-0.679 6.241 0.647 7.005 1.316 0.751 3.791-0.407 6.4-2.944-0.943-1.022-1.841-2.129-2.667-3.29l-0.069-0.103c-1.629-0.146-3.099-0.382-4.534-0.711l0.224 0.043z"></path>
        <path d="M16 22.504c-1.097 0-2.225-0.048-3.355-0.141l-0.313-0.027-0.18-0.257c-0.544-0.768-1.139-1.691-1.697-2.639l-0.103-0.19c-0.452-0.758-0.971-1.732-1.45-2.728l-0.105-0.243-0.133-0.284 0.133-0.284c0.584-1.239 1.102-2.212 1.658-3.161l-0.103 0.191c0.552-0.955 1.159-1.907 1.8-2.829l0.18-0.257 0.313-0.027c1.005-0.090 2.174-0.142 3.355-0.142s2.35 0.052 3.505 0.153l-0.15-0.011 0.312 0.027 0.179 0.257c1.177 1.666 2.294 3.567 3.252 5.56l0.104 0.24 0.135 0.284-0.135 0.284c-1.058 2.232-2.176 4.133-3.439 5.925l0.083-0.125-0.179 0.257-0.312 0.027c-1.129 0.093-2.259 0.141-3.356 0.141zM13.071 21.059c1.973 0.148 3.885 0.148 5.86 0 1.004-1.445 1.978-3.104 2.827-4.836l0.101-0.228c-0.947-1.958-1.922-3.617-3.012-5.19l0.083 0.126c-0.877-0.071-1.898-0.111-2.929-0.111s-2.052 0.040-3.063 0.119l0.134-0.008c-1.008 1.447-1.983 3.106-2.83 4.84l-0.099 0.224c0.951 1.96 1.926 3.619 3.014 5.193l-0.085-0.13z"></path>
  </symbol>
  <symbol xmlns="http://www.w3.org/2000/svg" viewBox="0 0 32 32" id="webpack">
    <title>webpack</title>
    <path d="M28.021 24.16l-11.553 6.506v-5.068l7.198-3.942 4.355 2.503zM28.811 23.448v-13.607l-4.228 2.429v8.746l4.228 2.432zM3.901 24.16l11.553 6.506v-5.068l-7.198-3.942-4.355 2.503zM3.111 23.448v-13.607l4.228 2.429v8.746l-4.228 2.432zM3.605 8.96l11.849-6.674v4.9l-7.649 4.19-4.2-2.415zM28.317 8.96l-11.849-6.674v4.9l7.649 4.19 4.2-2.415zM15.454 24.446l-7.102-3.887v-7.703l7.101 4.083v7.508zM16.468 24.446l7.101-3.887v-7.703l-7.101 4.083v7.508zM8.833 11.965l7.129-3.904 7.129 3.904-7.129 4.099-7.129-4.099z"></path>
  </symbol>
  <symbol xmlns="http://www.w3.org/2000/svg" viewBox="0 0 32 32" id="mysql">
    <title>mysql</title>
    <path d="M21.873 7.568c-0.153 0-0.257 0.019-0.365 0.044v0.017h0.019c0.072 0.139 0.195 0.24 0.285 0.364 0.072 0.143 0.133 0.285 0.205 0.427l0.019-0.020c0.125-0.088 0.187-0.229 0.187-0.444-0.053-0.063-0.061-0.125-0.107-0.187-0.053-0.089-0.168-0.133-0.24-0.204zM7.693 25.16h-1.236c-0.040-2.083-0.164-4.040-0.36-5.88h-0.011l-1.88 5.88h-0.94l-1.867-5.88h-0.013c-0.137 1.764-0.224 3.724-0.26 5.88h-1.127c0.073-2.621 0.256-5.080 0.547-7.373h1.533l1.78 5.419h0.011l1.796-5.419h1.46c0.323 2.687 0.512 5.147 0.571 7.373zM13.049 19.72c-0.504 2.727-1.168 4.711-1.989 5.947-0.643 0.955-1.347 1.431-2.111 1.431-0.204 0-0.453-0.061-0.755-0.184v-0.659c0.147 0.023 0.32 0.035 0.515 0.035 0.357 0 0.644-0.1 0.863-0.296 0.263-0.24 0.393-0.509 0.393-0.807 0-0.207-0.103-0.627-0.307-1.259l-1.352-4.208h1.213l0.969 3.147c0.219 0.715 0.311 1.213 0.273 1.497 0.533-1.419 0.904-2.969 1.113-4.644h1.173zM29.483 25.16h-3.507v-7.373h1.18v6.467h2.327zM25.056 25.34l-1.355-0.667c0.12-0.101 0.236-0.211 0.34-0.333 0.577-0.675 0.864-1.677 0.864-3.004 0-2.44-0.957-3.661-2.873-3.661-0.939 0-1.672 0.309-2.2 0.929-0.573 0.677-0.861 1.675-0.861 2.993 0 1.296 0.253 2.248 0.765 2.853 0.467 0.547 1.169 0.82 2.111 0.82 0.352 0 0.675-0.044 0.967-0.131l1.767 1.029 0.48-0.829zM20.667 23.684c-0.3-0.48-0.449-1.253-0.449-2.315 0-1.857 0.565-2.787 1.693-2.787 0.591 0 1.027 0.223 1.303 0.667 0.299 0.483 0.448 1.248 0.448 2.297 0 1.872-0.565 2.811-1.693 2.811-0.593 0-1.027-0.223-1.304-0.667zM18.456 23.117c0 0.627-0.229 1.141-0.688 1.541s-1.071 0.6-1.845 0.6c-0.724 0-1.419-0.229-2.097-0.687l0.316-0.635c0.584 0.293 1.111 0.437 1.587 0.437 0.443 0 0.791-0.097 1.044-0.293 0.251-0.196 0.4-0.472 0.4-0.82 0-0.44-0.307-0.813-0.864-1.127-0.517-0.284-1.551-0.876-1.551-0.876-0.563-0.409-0.843-0.848-0.843-1.569 0-0.6 0.209-1.080 0.627-1.447 0.42-0.371 0.96-0.553 1.627-0.553 0.683 0 1.307 0.181 1.867 0.547l-0.284 0.635c-0.48-0.203-0.953-0.307-1.419-0.307-0.377 0-0.669 0.091-0.872 0.275-0.204 0.181-0.331 0.413-0.331 0.699 0 0.437 0.312 0.813 0.888 1.133 0.524 0.287 1.583 0.893 1.583 0.893 0.577 0.407 0.864 0.84 0.864 1.557z"></path>
    <path d="M30.965 15.315c-0.713-0.019-1.267 0.053-1.729 0.251-0.133 0.053-0.347 0.053-0.365 0.223 0.073 0.071 0.084 0.187 0.147 0.285 0.107 0.179 0.291 0.417 0.461 0.543 0.187 0.147 0.373 0.288 0.569 0.413 0.347 0.213 0.74 0.34 1.080 0.555 0.193 0.125 0.391 0.284 0.587 0.417 0.097 0.067 0.16 0.187 0.285 0.229v-0.027c-0.061-0.080-0.080-0.196-0.14-0.285-0.089-0.089-0.179-0.169-0.267-0.257-0.259-0.347-0.58-0.649-0.927-0.9-0.285-0.195-0.909-0.467-1.027-0.793l-0.017-0.019c0.195-0.017 0.427-0.088 0.613-0.141 0.303-0.080 0.58-0.063 0.893-0.141 0.141-0.036 0.284-0.080 0.427-0.125v-0.080c-0.16-0.16-0.28-0.377-0.445-0.527-0.453-0.393-0.956-0.776-1.472-1.097-0.28-0.179-0.635-0.293-0.929-0.445-0.107-0.053-0.285-0.080-0.347-0.169-0.16-0.195-0.253-0.453-0.367-0.685-0.256-0.491-0.507-1.033-0.729-1.551-0.16-0.349-0.257-0.697-0.453-1.017-0.92-1.516-1.916-2.435-3.448-3.333-0.329-0.187-0.724-0.267-1.141-0.365-0.223-0.011-0.445-0.027-0.667-0.036-0.147-0.063-0.288-0.232-0.413-0.313-0.507-0.32-1.819-1.013-2.192-0.096-0.24 0.579 0.356 1.149 0.563 1.443 0.153 0.204 0.347 0.437 0.453 0.667 0.063 0.155 0.080 0.313 0.143 0.475 0.141 0.392 0.276 0.829 0.463 1.196 0.097 0.187 0.204 0.383 0.329 0.551 0.072 0.097 0.195 0.143 0.223 0.303-0.125 0.181-0.133 0.445-0.205 0.667-0.32 1.009-0.195 2.257 0.259 3 0.143 0.221 0.483 0.712 0.937 0.524 0.4-0.16 0.312-0.667 0.427-1.113 0.027-0.107 0.009-0.177 0.064-0.249v0.020c0.125 0.251 0.251 0.489 0.365 0.74 0.275 0.437 0.755 0.891 1.156 1.193 0.213 0.16 0.383 0.437 0.649 0.536v-0.027h-0.020c-0.057-0.077-0.133-0.115-0.205-0.177-0.16-0.16-0.34-0.356-0.467-0.533-0.373-0.503-0.703-1.053-0.996-1.624-0.147-0.28-0.269-0.581-0.387-0.857-0.053-0.107-0.053-0.267-0.143-0.32-0.133 0.195-0.329 0.364-0.427 0.604-0.169 0.384-0.187 0.856-0.251 1.347-0.036 0.009-0.019 0-0.036 0.019-0.285-0.069-0.383-0.365-0.489-0.613-0.267-0.633-0.311-1.651-0.080-2.38 0.063-0.187 0.329-0.776 0.223-0.955-0.056-0.169-0.232-0.267-0.329-0.404-0.116-0.165-0.24-0.38-0.32-0.569-0.213-0.499-0.32-1.051-0.552-1.549-0.107-0.231-0.293-0.472-0.445-0.684-0.169-0.24-0.356-0.409-0.491-0.693-0.044-0.097-0.107-0.259-0.036-0.365 0.019-0.072 0.056-0.1 0.125-0.12 0.117-0.096 0.447 0.029 0.563 0.083 0.329 0.133 0.607 0.259 0.883 0.445 0.125 0.088 0.26 0.257 0.42 0.301h0.187c0.285 0.063 0.607 0.019 0.873 0.097 0.473 0.152 0.9 0.373 1.283 0.613 1.168 0.741 2.128 1.793 2.78 3.048 0.107 0.205 0.153 0.393 0.251 0.607 0.187 0.44 0.417 0.884 0.607 1.309 0.187 0.42 0.367 0.848 0.635 1.196 0.133 0.187 0.669 0.284 0.909 0.381 0.177 0.080 0.453 0.153 0.613 0.251 0.307 0.187 0.605 0.4 0.893 0.605 0.147 0.101 0.591 0.324 0.617 0.504z"></path>
  </symbol>
  <symbol xmlns="http://www.w3.org/2000/svg" viewBox="0 0 32 32" id="git">
    <title>git</title>
    <path d="M31.395 14.573l-13.972-13.971c-0.805-0.804-2.109-0.804-2.917 0l-2.895 2.9 3.68 3.68c0.86-0.287 1.839-0.093 2.519 0.588 0.688 0.687 0.877 1.677 0.584 2.533l3.544 3.547c0.86-0.297 1.849-0.104 2.533 0.58 0.961 0.96 0.961 2.512 0 3.472-0.959 0.959-2.508 0.959-3.467 0-0.719-0.721-0.899-1.783-0.539-2.661l-3.319-3.301v8.7c0.235 0.115 0.456 0.271 0.651 0.464 0.951 0.961 0.951 2.511 0 3.467-0.959 0.961-2.519 0.961-3.479 0-0.959-0.959-0.959-2.505 0-3.464 0.243-0.24 0.516-0.421 0.807-0.541v-8.785c-0.289-0.121-0.565-0.296-0.8-0.535-0.727-0.727-0.901-1.789-0.528-2.679l-3.616-3.633-9.581 9.575c-0.8 0.807-0.8 2.112 0 2.919l13.973 13.969c0.805 0.805 2.109 0.805 2.915 0l13.907-13.907c0.807-0.804 0.807-2.109 0-2.916z"></path>
  </symbol>
  <symbol xmlns="http://www.w3.org/2000/svg" viewBox="0 0 32 32" id="check">
    <title>checkbox-checked</title>
    <path d="M28 0h-24c-2.2 0-4 1.8-4 4v24c0 2.2 1.8 4 4 4h24c2.2 0 4-1.8 4-4v-24c0-2.2-1.8-4-4-4zM14 24.828l-7.414-7.414 2.828-2.828 4.586 4.586 9.586-9.586 2.828 2.828-12.414 12.414z"></path>
  </symbol>
</svg>